<svg data-v-fde0c5aa="" xmlns="http://www.w3.org/2000/svg" viewBox="0 0 300 300" class="iconLeft"><!----><defs data-v-fde0c5aa=""><!----></defs><rect data-v-fde0c5aa="" fill="transparent" x="0" y="0" width="300px" height="300px" class="logo-background-square"></rect><defs data-v-fde0c5aa=""><linearGradient data-v-fde0c5aa="" gradientTransform="rotate(25)" id="25d39902-46f8-422e-80a4-121294cc108d" x1="0%" y1="0%" x2="100%" y2="0%"><stop data-v-fde0c5aa="" offset="0%" stop-color="#000000" stop-opacity="1"></stop><stop data-v-fde0c5aa="" offset="100%" stop-color="#00FFE1" stop-opacity="1"></stop></linearGradient></defs><g data-v-fde0c5aa="" id="037f572d-7c84-4841-b331-169fe95419cf" fill="url(#25d39902-46f8-422e-80a4-121294cc108d)" transform="matrix(9.061063584173123,0,0,9.061063584173123,167.12409880230697,58.07551011138975)"><path d="M1.43 7.06L0.17 6.67L0.29 5.89L4.61 5.89L4.51 6.67L3.37 7.03L3.37 9.49L7.04 9.49L7.04 7.06L5.80 6.67L5.89 5.89L10.25 5.89L10.14 6.67L9.00 7.03L9.00 13.29L10.23 13.62L10.14 14.40L5.82 14.40L5.91 13.67L7.04 13.24L7.04 10.70L3.37 10.70L3.37 13.29L4.62 13.62L4.51 14.40L0.21 14.40L0.28 13.67L1.43 13.24L1.43 7.06Z"></path></g><defs data-v-fde0c5aa=""><!----></defs><g data-v-fde0c5aa="" id="4cbeb12e-b2c8-4a30-a82f-756f8cee749f" stroke="none" fill="#CC2B6B" transform="matrix(3.6145149925887257,0,0,3.6145149925887257,40,92.16776011858039)"><path d="M6.651 19.325h6.024V32h6.65V19.325h6.024V32H32V0h-6.651v12.675h-6.024V0h-6.65v12.675H6.651V0H0v32h6.651z"></path></g><!----></svg>